<svg width="1000" height="1000" viewBox="0 0 1000 1000" fill="none" xmlns="http://www.w3.org/2000/svg">
<rect width="1000" height="1000" fill="#FFFF8F"/>
<path d="M276.484 493.045C278.59 487.028 284.268 483 290.642 483H409.358C415.732 483 421.41 487.028 423.516 493.045L483.016 663.045C486.429 672.797 479.191 683 468.858 683H231.142C220.809 683 213.571 672.797 216.984 663.045L276.484 493.045Z" fill="#3D3D3D"/>
<path d="M576.484 493.045C578.59 487.028 584.268 483 590.642 483H709.358C715.732 483 721.41 487.028 723.516 493.045L783.016 663.045C786.429 672.797 779.191 683 768.858 683H531.142C520.809 683 513.571 672.797 516.984 663.045L576.484 493.045Z" fill="#3D3D3D"/>
<path d="M429.914 276.923C431.956 270.798 437.688 266.667 444.145 266.667H555.855C562.312 266.667 568.044 270.798 570.085 276.923L626.752 446.923C629.99 456.636 622.76 466.666 612.522 466.666H387.478C377.24 466.666 370.01 456.636 373.248 446.923L429.914 276.923Z" fill="#3D3D3D"/>
</svg>
