<svg width="1000" height="1000" viewBox="0 0 1000 1000" fill="none" xmlns="http://www.w3.org/2000/svg">
<rect width="1000" height="1000" fill="#FF5C5C"/>
<path d="M273.332 414.5C257.332 414.5 242.882 411.7 229.982 406.1C217.182 400.4 206.632 392.3 198.332 381.8C190.132 371.2 184.932 358.6 182.732 344L225.332 337.7C228.332 350.1 234.532 359.65 243.932 366.35C253.332 373.05 264.032 376.4 276.032 376.4C282.732 376.4 289.232 375.35 295.532 373.25C301.832 371.15 306.982 368.05 310.982 363.95C315.082 359.85 317.132 354.8 317.132 348.8C317.132 346.6 316.782 344.5 316.082 342.5C315.482 340.4 314.432 338.45 312.932 336.65C311.432 334.85 309.282 333.15 306.482 331.55C303.782 329.95 300.332 328.5 296.132 327.2L240.032 310.7C235.832 309.5 230.932 307.8 225.332 305.6C219.832 303.4 214.482 300.25 209.282 296.15C204.082 292.05 199.732 286.65 196.232 279.95C192.832 273.15 191.132 264.6 191.132 254.3C191.132 239.8 194.782 227.75 202.082 218.15C209.382 208.55 219.132 201.4 231.332 196.7C243.532 192 257.032 189.7 271.832 189.8C286.732 190 300.032 192.55 311.732 197.45C323.432 202.35 333.232 209.5 341.132 218.9C349.032 228.2 354.732 239.6 358.232 253.1L314.132 260.6C312.532 253.6 309.582 247.7 305.282 242.9C300.982 238.1 295.832 234.45 289.832 231.95C283.932 229.45 277.732 228.1 271.232 227.9C264.832 227.7 258.782 228.6 253.082 230.6C247.482 232.5 242.882 235.3 239.282 239C235.782 242.7 234.032 247.1 234.032 252.2C234.032 256.9 235.482 260.75 238.382 263.75C241.282 266.65 244.932 269 249.332 270.8C253.732 272.6 258.232 274.1 262.832 275.3L300.332 285.5C305.932 287 312.132 289 318.932 291.5C325.732 293.9 332.232 297.3 338.432 301.7C344.732 306 349.882 311.7 353.882 318.8C357.982 325.9 360.032 334.9 360.032 345.8C360.032 357.4 357.582 367.55 352.682 376.25C347.882 384.85 341.382 392 333.182 397.7C324.982 403.3 315.682 407.5 305.282 410.3C294.982 413.1 284.332 414.5 273.332 414.5ZM495.302 414.5C483.302 414.5 471.902 412.7 461.102 409.1C450.302 405.5 441.302 399.8 434.102 392C428.302 385.5 424.052 378.5 421.352 371C418.752 363.5 417.302 355.4 417.002 346.7C417.002 338.1 418.252 329.9 420.752 322.1C423.252 314.2 427.102 307.2 432.302 301.1C434.002 299.1 435.802 297.3 437.702 295.7C439.602 294 441.502 292.4 443.402 290.9C438.002 284.7 433.952 278.6 431.252 272.6C428.552 266.5 427.202 259.5 427.202 251.6C427.202 238.5 430.752 226.8 437.852 216.5C445.052 206.2 454.802 198.9 467.102 194.6C472.202 192.8 477.352 191.6 482.552 191C487.752 190.4 492.802 190.1 497.702 190.1C507.602 190.1 517.052 191.65 526.052 194.75C535.052 197.75 542.702 202.7 549.002 209.6C552.902 213.6 556.102 218.05 558.602 222.95C561.202 227.85 563.102 232.8 564.302 237.8L523.802 245.9C522.602 241.7 520.502 238.1 517.502 235.1C514.702 232.2 511.402 230.35 507.602 229.55C503.802 228.65 500.102 228.2 496.502 228.2C490.802 228.2 485.802 229.2 481.502 231.2C477.002 233.3 473.652 236.05 471.452 239.45C469.352 242.85 468.302 247.1 468.302 252.2C468.302 256.8 469.202 260.45 471.002 263.15C472.802 265.85 474.902 268.5 477.302 271.1C479.002 272.9 481.102 275 483.602 277.4C486.202 279.8 488.902 282.3 491.702 284.9L541.202 330.8C541.202 329.1 541.202 327.1 541.202 324.8C541.202 322.5 541.202 320.4 541.202 318.5V293.9H576.602V335C576.602 339.6 576.502 344.45 576.302 349.55C576.102 354.55 575.602 358.7 574.802 362L601.202 386.3L575.102 414.2L555.302 395.3C549.602 400.2 543.502 404.1 537.002 407C530.602 409.9 524.102 411.9 517.502 413C513.302 413.6 509.452 414 505.952 414.2C502.452 414.4 498.902 414.5 495.302 414.5ZM497.102 375.8C499.402 375.8 501.602 375.7 503.702 375.5C505.802 375.3 507.902 375 510.002 374.6C513.202 374 516.102 373.15 518.702 372.05C521.402 370.85 523.802 369.5 525.902 368L473.102 319.4C471.002 320.3 469.102 321.4 467.402 322.7C465.802 324 464.402 325.4 463.202 326.9C461.602 329.1 460.352 331.65 459.452 334.55C458.552 337.45 458.102 340.7 458.102 344.3C458.102 348.6 458.752 352.35 460.052 355.55C461.452 358.65 463.102 361.5 465.002 364.1C468.302 368.3 473.102 371.3 479.402 373.1C485.702 374.9 491.602 375.8 497.102 375.8ZM655.15 410V194H746.35C748.45 194 751.25 194.1 754.75 194.3C758.35 194.4 761.55 194.7 764.35 195.2C777.25 197.2 787.8 201.45 796 207.95C804.3 214.45 810.4 222.65 814.3 232.55C818.2 242.35 820.15 253.3 820.15 265.4C820.15 277.5 818.15 288.5 814.15 298.4C810.25 308.2 804.15 316.35 795.85 322.85C787.65 329.35 777.15 333.6 764.35 335.6C761.55 336 758.35 336.3 754.75 336.5C751.15 336.7 748.35 336.8 746.35 336.8H695.95V410H655.15ZM695.95 298.7H744.55C746.65 298.7 748.95 298.6 751.45 298.4C753.95 298.2 756.25 297.8 758.35 297.2C763.85 295.7 768.1 293.2 771.1 289.7C774.1 286.1 776.15 282.15 777.25 277.85C778.45 273.45 779.05 269.3 779.05 265.4C779.05 261.5 778.45 257.4 777.25 253.1C776.15 248.7 774.1 244.75 771.1 241.25C768.1 237.65 763.85 235.1 758.35 233.6C756.25 233 753.95 232.6 751.45 232.4C748.95 232.2 746.65 232.1 744.55 232.1H695.95V298.7ZM264.721 824.5C253.821 824.5 243.571 822.25 233.971 817.75C224.471 813.25 216.271 807 209.371 799C202.471 791 197.521 781.7 194.521 771.1L233.821 760.6C235.121 765.7 237.421 770.1 240.721 773.8C244.121 777.5 248.021 780.4 252.421 782.5C256.921 784.5 261.521 785.5 266.221 785.5C272.421 785.5 278.071 784 283.171 781C288.371 778 292.471 773.95 295.471 768.85C298.571 763.75 300.121 758.1 300.121 751.9C300.121 745.7 298.571 740.05 295.471 734.95C292.471 729.85 288.371 725.8 283.171 722.8C278.071 719.8 272.421 718.3 266.221 718.3C258.621 718.3 252.421 719.6 247.621 722.2C242.821 724.7 239.221 727.1 236.821 729.4L202.321 718.9L208.921 604H326.821V642.1H231.421L245.821 628.6L241.321 702.7L234.421 694.3C239.821 689.9 245.971 686.7 252.871 684.7C259.771 682.7 266.221 681.7 272.221 681.7C285.821 681.7 297.771 684.75 308.071 690.85C318.471 696.85 326.571 705.15 332.371 715.75C338.271 726.25 341.221 738.3 341.221 751.9C341.221 765.5 337.671 777.8 330.571 788.8C323.471 799.7 314.121 808.4 302.521 814.9C290.921 821.3 278.321 824.5 264.721 824.5ZM487.282 824.5C471.282 824.5 457.282 821.15 445.282 814.45C433.282 807.75 423.932 798.4 417.232 786.4C410.532 774.4 407.182 760.4 407.182 744.4V679.6C407.182 663.6 410.532 649.6 417.232 637.6C423.932 625.6 433.282 616.25 445.282 609.55C457.282 602.85 471.282 599.5 487.282 599.5C503.282 599.5 517.282 602.85 529.282 609.55C541.282 616.25 550.632 625.6 557.332 637.6C564.032 649.6 567.382 663.6 567.382 679.6V744.4C567.382 760.4 564.032 774.4 557.332 786.4C550.632 798.4 541.282 807.75 529.282 814.45C517.282 821.15 503.282 824.5 487.282 824.5ZM487.282 785.8C494.482 785.8 500.982 784.1 506.782 780.7C512.582 777.3 517.182 772.7 520.582 766.9C523.982 761.1 525.682 754.6 525.682 747.4V676.3C525.682 669.1 523.982 662.6 520.582 656.8C517.182 651 512.582 646.4 506.782 643C500.982 639.6 494.482 637.9 487.282 637.9C480.082 637.9 473.582 639.6 467.782 643C461.982 646.4 457.382 651 453.982 656.8C450.582 662.6 448.882 669.1 448.882 676.3V747.4C448.882 754.6 450.582 761.1 453.982 766.9C457.382 772.7 461.982 777.3 467.782 780.7C473.582 784.1 480.082 785.8 487.282 785.8ZM719.43 824.5C703.43 824.5 689.43 821.15 677.43 814.45C665.43 807.75 656.08 798.4 649.38 786.4C642.68 774.4 639.33 760.4 639.33 744.4V679.6C639.33 663.6 642.68 649.6 649.38 637.6C656.08 625.6 665.43 616.25 677.43 609.55C689.43 602.85 703.43 599.5 719.43 599.5C735.43 599.5 749.43 602.85 761.43 609.55C773.43 616.25 782.78 625.6 789.48 637.6C796.18 649.6 799.53 663.6 799.53 679.6V744.4C799.53 760.4 796.18 774.4 789.48 786.4C782.78 798.4 773.43 807.75 761.43 814.45C749.43 821.15 735.43 824.5 719.43 824.5ZM719.43 785.8C726.63 785.8 733.13 784.1 738.93 780.7C744.73 777.3 749.33 772.7 752.73 766.9C756.13 761.1 757.83 754.6 757.83 747.4V676.3C757.83 669.1 756.13 662.6 752.73 656.8C749.33 651 744.73 646.4 738.93 643C733.13 639.6 726.63 637.9 719.43 637.9C712.23 637.9 705.73 639.6 699.93 643C694.13 646.4 689.53 651 686.13 656.8C682.73 662.6 681.03 669.1 681.03 676.3V747.4C681.03 754.6 682.73 761.1 686.13 766.9C689.53 772.7 694.13 777.3 699.93 780.7C705.73 784.1 712.23 785.8 719.43 785.8Z" fill="#3D3D3D"/>
</svg>
