<svg width="1000" height="1000" viewBox="0 0 1000 1000" fill="none" xmlns="http://www.w3.org/2000/svg">
<rect width="1000" height="1000" fill="#3E5BFF"/>
<path d="M129.31 475.333V333.013H74.8297V302.533H216.43V333.013H161.95V475.333H129.31ZM333.874 478.933C316.594 478.933 301.674 475.173 289.114 467.653C276.634 460.133 266.994 449.613 260.194 436.093C253.474 422.573 250.114 406.853 250.114 388.933C250.114 371.013 253.474 355.293 260.194 341.773C266.994 328.253 276.634 317.733 289.114 310.213C301.674 302.693 316.594 298.933 333.874 298.933C351.154 298.933 366.034 302.693 378.514 310.213C391.074 317.733 400.714 328.253 407.434 341.773C414.234 355.293 417.634 371.013 417.634 388.933C417.634 406.853 414.234 422.573 407.434 436.093C400.714 449.613 391.074 460.133 378.514 467.653C366.034 475.173 351.154 478.933 333.874 478.933ZM333.874 448.213C344.834 448.373 353.954 446.013 361.234 441.133C368.514 436.253 373.954 429.333 377.554 420.373C381.234 411.413 383.074 400.933 383.074 388.933C383.074 376.933 381.234 366.533 377.554 357.733C373.954 348.933 368.514 342.093 361.234 337.213C353.954 332.333 344.834 329.813 333.874 329.653C322.914 329.493 313.794 331.853 306.514 336.733C299.234 341.613 293.754 348.533 290.074 357.493C286.474 366.453 284.674 376.933 284.674 388.933C284.674 400.933 286.474 411.333 290.074 420.133C293.754 428.933 299.234 435.773 306.514 440.653C313.794 445.533 322.914 448.053 333.874 448.213ZM500.982 475.333V333.013H446.502V302.533H588.102V333.013H533.622V475.333H500.982ZM614.698 475.333L667.498 302.533H716.218L769.018 475.333H735.418L688.378 322.933H694.618L648.298 475.333H614.698ZM646.378 439.333V408.853H737.578V439.333H646.378ZM816.927 475.333V302.533H849.567V444.853H923.967V475.333H816.927Z" fill="#3D3D3D"/>
<path d="M496.302 778.453C487.662 778.453 479.422 776.733 471.582 773.293C463.742 769.773 456.902 764.853 451.062 758.533C445.302 752.213 441.182 744.773 438.702 736.213L470.382 727.813C472.062 734.133 475.342 739.053 480.222 742.573C485.182 746.013 490.542 747.733 496.302 747.733C501.262 747.733 505.782 746.533 509.862 744.133C514.022 741.733 517.302 738.493 519.702 734.413C522.182 730.333 523.422 725.813 523.422 720.853C523.422 713.413 520.862 707.053 515.742 701.773C510.702 696.413 504.222 693.733 496.302 693.733C493.902 693.733 491.582 694.093 489.342 694.813C487.102 695.453 484.942 696.373 482.862 697.573L468.222 671.893L523.182 626.293L525.582 633.253H445.422V602.533H553.422V633.253L510.702 674.533L510.462 665.413C520.382 666.933 528.742 670.413 535.542 675.853C542.422 681.213 547.622 687.853 551.142 695.773C554.742 703.613 556.542 711.973 556.542 720.853C556.542 731.733 553.782 741.533 548.262 750.253C542.742 758.893 535.422 765.773 526.302 770.893C517.182 775.933 507.182 778.453 496.302 778.453Z" fill="#3D3D3D"/>
</svg>
