<svg width="1000" height="1000" viewBox="0 0 1000 1000" fill="none" xmlns="http://www.w3.org/2000/svg">
<rect width="1000" height="1000" fill="#3E5BFF"/>
<path d="M129.31 592V449.68H74.8297V419.2H216.43V449.68H161.95V592H129.31ZM333.874 595.6C316.594 595.6 301.674 591.84 289.114 584.32C276.634 576.8 266.994 566.28 260.194 552.76C253.474 539.24 250.114 523.52 250.114 505.6C250.114 487.68 253.474 471.96 260.194 458.44C266.994 444.92 276.634 434.4 289.114 426.88C301.674 419.36 316.594 415.6 333.874 415.6C351.154 415.6 366.034 419.36 378.514 426.88C391.074 434.4 400.714 444.92 407.434 458.44C414.234 471.96 417.634 487.68 417.634 505.6C417.634 523.52 414.234 539.24 407.434 552.76C400.714 566.28 391.074 576.8 378.514 584.32C366.034 591.84 351.154 595.6 333.874 595.6ZM333.874 564.88C344.834 565.04 353.954 562.68 361.234 557.8C368.514 552.92 373.954 546 377.554 537.04C381.234 528.08 383.074 517.6 383.074 505.6C383.074 493.6 381.234 483.2 377.554 474.4C373.954 465.6 368.514 458.76 361.234 453.88C353.954 449 344.834 446.48 333.874 446.32C322.914 446.16 313.794 448.52 306.514 453.4C299.234 458.28 293.754 465.2 290.074 474.16C286.474 483.12 284.674 493.6 284.674 505.6C284.674 517.6 286.474 528 290.074 536.8C293.754 545.6 299.234 552.44 306.514 557.32C313.794 562.2 322.914 564.72 333.874 564.88ZM500.982 592V449.68H446.502V419.2H588.102V449.68H533.622V592H500.982ZM614.698 592L667.498 419.2H716.218L769.018 592H735.418L688.378 439.6H694.618L648.298 592H614.698ZM646.378 556V525.52H737.578V556H646.378ZM816.927 592V419.2H849.567V561.52H923.967V592H816.927Z" fill="#3D3D3D"/>
</svg>
