<svg width="1000" height="1000" viewBox="0 0 1000 1000" fill="none" xmlns="http://www.w3.org/2000/svg">
<rect width="1000" height="1000" fill="#3E5BFF"/>
<path d="M129.31 475.333V333.013H74.8297V302.533H216.43V333.013H161.95V475.333H129.31ZM333.874 478.933C316.594 478.933 301.674 475.173 289.114 467.653C276.634 460.133 266.994 449.613 260.194 436.093C253.474 422.573 250.114 406.853 250.114 388.933C250.114 371.013 253.474 355.293 260.194 341.773C266.994 328.253 276.634 317.733 289.114 310.213C301.674 302.693 316.594 298.933 333.874 298.933C351.154 298.933 366.034 302.693 378.514 310.213C391.074 317.733 400.714 328.253 407.434 341.773C414.234 355.293 417.634 371.013 417.634 388.933C417.634 406.853 414.234 422.573 407.434 436.093C400.714 449.613 391.074 460.133 378.514 467.653C366.034 475.173 351.154 478.933 333.874 478.933ZM333.874 448.213C344.834 448.373 353.954 446.013 361.234 441.133C368.514 436.253 373.954 429.333 377.554 420.373C381.234 411.413 383.074 400.933 383.074 388.933C383.074 376.933 381.234 366.533 377.554 357.733C373.954 348.933 368.514 342.093 361.234 337.213C353.954 332.333 344.834 329.813 333.874 329.653C322.914 329.493 313.794 331.853 306.514 336.733C299.234 341.613 293.754 348.533 290.074 357.493C286.474 366.453 284.674 376.933 284.674 388.933C284.674 400.933 286.474 411.333 290.074 420.133C293.754 428.933 299.234 435.773 306.514 440.653C313.794 445.533 322.914 448.053 333.874 448.213ZM500.982 475.333V333.013H446.502V302.533H588.102V333.013H533.622V475.333H500.982ZM614.698 475.333L667.498 302.533H716.218L769.018 475.333H735.418L688.378 322.933H694.618L648.298 475.333H614.698ZM646.378 439.333V408.853H737.578V439.333H646.378ZM816.927 475.333V302.533H849.567V444.853H923.967V475.333H816.927Z" fill="#3D3D3D"/>
<path d="M439.578 775.093V746.773L512.058 682.453C517.498 677.653 521.338 673.133 523.578 668.893C525.818 664.653 526.938 660.693 526.938 657.013C526.938 651.733 525.858 647.053 523.698 642.973C521.538 638.813 518.498 635.573 514.578 633.253C510.658 630.853 506.058 629.653 500.778 629.653C495.258 629.653 490.378 630.933 486.138 633.493C481.978 635.973 478.738 639.293 476.418 643.453C474.098 647.533 473.018 651.973 473.178 656.773H439.578C439.578 644.933 442.178 634.693 447.378 626.053C452.578 617.413 459.818 610.733 469.098 606.013C478.378 601.293 489.178 598.933 501.498 598.933C512.778 598.933 522.858 601.413 531.738 606.373C540.698 611.253 547.738 618.093 552.858 626.893C557.978 635.693 560.538 645.893 560.538 657.493C560.538 666.053 559.338 673.173 556.938 678.853C554.538 684.453 550.978 689.653 546.258 694.453C541.538 699.173 535.738 704.533 528.858 710.533L482.058 751.573L479.418 744.373H560.538V775.093H439.578Z" fill="#3D3D3D"/>
</svg>
