<svg width="29" height="29" viewBox="0 0 29 29" fill="none" xmlns="http://www.w3.org/2000/svg">
<path d="M7.07562 21.2178C7.494 21.6361 8.19803 21.638 8.61829 21.2177L14.1512 15.6848L19.6842 21.2177C20.0953 21.6289 20.8084 21.6361 21.2268 21.2177C21.6452 20.7993 21.6289 20.0953 21.2178 19.6842L15.6848 14.1512L21.2268 8.60918C21.638 8.19802 21.6361 7.494 21.2178 7.07562C20.7993 6.65721 20.0953 6.65535 19.6842 7.0665L14.1421 12.6085L8.6092 7.0756C8.19803 6.66443 7.49402 6.64811 7.07562 7.06652C6.65721 7.48492 6.66445 8.19801 7.07562 8.60918L12.6086 14.1421L7.07562 19.6751C6.65535 20.0953 6.65721 20.7993 7.07562 21.2178Z" fill="white"/>
</svg>
