<svg width="105" height="105" viewBox="0 0 105 105" fill="none" xmlns="http://www.w3.org/2000/svg">
<path d="M47.2812 104.303H57.1253C60.9124 104.303 63.7955 102.032 64.6879 98.4304L66.7861 89.2897L68.3718 88.7365L76.2559 93.6501C79.4726 95.6323 83.1235 95.176 85.79 92.4577L92.6543 85.6454C95.3313 82.9894 95.8393 79.2763 93.8053 76.1525L88.84 68.2272L89.3932 66.7862L98.5343 64.6879C102.135 63.7956 104.458 60.8607 104.458 57.1254V47.4883C104.458 43.753 102.186 40.8182 98.5343 39.9258L89.4967 37.724L88.8917 36.2313L93.8573 28.306C95.8913 25.1305 95.3833 21.5208 92.7063 18.7613L85.8418 11.949C83.227 9.28241 79.5761 8.82621 76.3594 10.7567L68.4236 15.6184L66.7861 15.0135L64.6879 5.8728C63.7955 2.2717 60.9124 0 57.1253 0H47.2812C43.4942 0 40.6628 2.2717 39.7704 5.8728L37.6722 15.0135L35.9724 15.6184L28.0366 10.7567C24.8716 8.82621 21.2102 9.28241 18.5542 11.949L11.7419 18.7613C9.06484 21.5208 8.55684 25.1305 10.5908 28.306L15.5043 36.2313L14.8993 37.724L5.87274 39.9258C2.27164 40.8182 0 43.753 0 47.4883V57.1254C0 60.8607 2.32334 63.7956 5.87274 64.6879L15.0028 66.7862L15.556 68.2272L10.6425 76.1525C8.60864 79.2763 9.11654 82.9894 11.7936 85.6454L18.606 92.4577C21.2619 95.176 24.9751 95.6323 28.1401 93.6501L36.0759 88.7365L37.6722 89.2897L39.7704 98.4304C40.6628 102.032 43.4942 104.303 47.2812 104.303ZM48.0691 96.7085C47.235 96.7085 46.7969 96.3432 46.6818 95.5925L43.7133 83.5074C40.7362 82.7291 37.9863 81.6086 35.8689 80.2399L25.2484 86.8327C24.6329 87.2085 24.028 87.1251 23.4336 86.593L17.6996 80.8072C17.1157 80.2646 17.0946 79.6807 17.5222 79.0029L24.0114 68.4237C22.9121 66.3686 21.6258 63.6187 20.8475 60.6416L8.71064 57.7248C7.95994 57.6098 7.59474 57.1716 7.59474 56.3376V48.1727C7.59474 47.2868 7.90824 46.9522 8.71064 46.7336L20.7957 43.8686C21.574 40.6845 23.0673 37.8311 23.9079 35.983L17.4704 25.4556C16.9911 24.726 17.0122 24.1421 17.5961 23.5477L23.3818 17.8655C23.9762 17.3334 24.4777 17.1982 25.2484 17.6258L35.7654 24.0633C37.8827 22.8498 40.8397 21.6258 43.765 20.7958L46.6818 8.7107C46.7969 7.96 47.235 7.5947 48.0691 7.5947H56.3892C57.2339 7.5947 57.6614 7.9389 57.7765 8.7107L60.6933 20.8993C63.7432 21.6776 66.4203 22.9016 68.5789 24.115L79.1993 17.6258C79.9183 17.1982 80.4197 17.3334 81.0659 17.8655L86.8517 23.5477C87.3838 24.1421 87.4566 24.726 86.9773 25.4556L80.4881 35.983C81.4015 37.8311 82.8325 40.674 83.6108 43.8686L95.7373 46.7336C96.5503 46.9522 96.8123 47.2868 96.8123 48.1727V56.3376C96.8123 57.1716 96.4983 57.6098 95.7373 57.7248L83.5591 60.6416C82.8325 63.6292 81.5568 66.3686 80.3846 68.4237L86.9255 79.0029C87.3531 79.6807 87.332 80.2646 86.7482 80.8072L81.0141 86.593C80.368 87.1251 79.763 87.2085 79.1993 86.8327L68.5271 80.2399C66.472 81.6086 63.6914 82.7291 60.6933 83.5074L57.7765 95.5925C57.6614 96.3643 57.2339 96.7085 56.3892 96.7085H48.0691ZM52.2138 70.7913C62.4318 70.7913 70.8535 62.4213 70.8535 52.1411C70.8535 41.9854 62.4318 33.6155 52.2138 33.6155C41.9959 33.6155 33.5636 41.9854 33.5636 52.1411C33.5636 62.3696 41.9853 70.7913 52.2138 70.7913ZM52.2138 63.2483C46.1507 63.2483 41.2101 58.2559 41.2101 52.1411C41.2101 46.1508 46.1613 41.1584 52.2138 41.1584C58.1629 41.1584 63.1553 46.1508 63.1553 52.1411C63.1553 58.2042 58.1629 63.2483 52.2138 63.2483Z" fill="white"/>
</svg>
