<svg width="23" height="24" viewBox="0 0 23 24" fill="none" xmlns="http://www.w3.org/2000/svg">
<path d="M0 9.26255C0 14.3729 4.159 18.5234 9.26932 18.5234C11.3597 18.5234 13.2757 17.8295 14.8245 16.6515L21.0393 22.8815C21.2577 23.0982 21.5524 23.215 21.8623 23.215C22.5428 23.215 23 22.7003 23 22.0535C23 21.7487 22.8799 21.4693 22.6817 21.2475L16.4839 15.0412C17.7618 13.4602 18.5234 11.4528 18.5234 9.26255C18.5234 4.159 14.3729 0 9.26932 0C4.159 0 0 4.159 0 9.26255ZM1.55468 9.26255C1.55468 5.01254 5.01254 1.55467 9.26932 1.55467C13.5109 1.55467 16.9772 5.01254 16.9772 9.26255C16.9772 13.5108 13.5109 16.9772 9.26932 16.9772C5.01254 16.9772 1.55468 13.5108 1.55468 9.26255Z" fill="white"/>
</svg>
