<svg width="36" height="35" viewBox="0 0 36 35" fill="none" xmlns="http://www.w3.org/2000/svg">
<path d="M17.5 35C27.0843 35 35.0152 27.0843 35.0152 17.5C35.0152 7.91572 27.0692 0 17.4849 0C7.91275 0 0 7.91572 0 17.5C0 27.0843 7.92782 35 17.5 35ZM17.5 32.1367C13.7039 32.1367 9.68585 30.5565 7.11742 27.8041C9.04665 24.8856 12.9245 23.2008 17.5 23.2008C22.0261 23.2008 25.9347 24.8634 27.8826 27.8041C25.3141 30.5565 21.2961 32.1367 17.5 32.1367ZM17.5 20.2839C14.1835 20.2538 11.6033 17.4806 11.6033 13.8165C11.5817 10.3615 14.2032 7.47527 17.5 7.47527C20.7968 7.47527 23.3967 10.3615 23.3967 13.8165C23.3967 17.4806 20.8164 20.314 17.5 20.2839Z" fill="white"/>
</svg>
