<svg width="109" height="104" viewBox="0 0 109 104" fill="none" xmlns="http://www.w3.org/2000/svg">
<path d="M20.7636 102.712C22.8262 104.266 25.3239 103.697 28.3719 101.489L54.1941 82.5432L80.0681 101.489C83.0748 103.697 85.5726 104.266 87.6352 102.712C89.6355 101.209 90.0613 98.6701 88.817 95.1448L78.6593 64.7628L104.709 46.0347C107.757 43.9299 109 41.6392 108.171 39.2038C107.394 36.8613 105.083 35.6584 101.34 35.7102L69.3693 35.9277L59.6363 5.3799C58.4957 1.8134 56.7541 0 54.1941 0C51.6964 0 49.9443 1.8134 48.7625 5.3799L39.0294 35.9277L7.05812 35.7102C3.31532 35.6584 1.04572 36.8613 0.227217 39.2038C-0.550123 41.6392 0.682417 43.9299 3.68912 46.0347L29.7395 64.7628L19.5818 95.1448C18.3377 98.6701 18.7633 101.209 20.7636 102.712Z" fill="white"/>
</svg>
