<svg width="37" height="35" viewBox="0 0 37 35" fill="currentColor" xmlns="http://www.w3.org/2000/svg">
<path d="M7.01107 34.6818C7.70753 35.2068 8.55091 35.0145 9.5801 34.2689L18.2993 27.8717L27.0359 34.2689C28.0512 35.0145 28.8946 35.2068 29.591 34.6818C30.2664 34.1744 30.4102 33.3171 29.9901 32.1267L26.5602 21.8679L35.3563 15.5441C36.3855 14.8334 36.8052 14.0599 36.5253 13.2376C36.2629 12.4466 35.4826 12.0405 34.2187 12.058L23.4233 12.1314L20.1369 1.81658C19.7517 0.612314 19.1637 0 18.2993 0C17.4559 0 16.8643 0.612314 16.4652 1.81658L13.1787 12.1314L2.38325 12.058C1.11945 12.0405 0.353098 12.4466 0.0767224 13.2376C-0.185755 14.0599 0.230426 14.8334 1.24567 15.5441L10.0419 21.8679L6.61202 32.1267C6.19194 33.3171 6.33565 34.1744 7.01107 34.6818ZM9.38939 31.4291C9.36123 31.387 9.36835 31.3588 9.39297 31.264L12.6794 21.8407C12.893 21.2035 12.7704 20.6957 12.1927 20.2895L3.98741 14.6266C3.9136 14.5599 3.88544 14.5318 3.90648 14.4861C3.92751 14.4405 3.95925 14.4405 4.0541 14.4405L14.035 14.6224C14.7108 14.6398 15.138 14.3631 15.3516 13.6909L18.2044 4.14179C18.229 4.04694 18.2536 4.01523 18.2993 4.01523C18.3449 4.01523 18.3695 4.04694 18.3976 4.14179L21.2505 13.6909C21.4641 14.3631 21.9088 14.6398 22.5845 14.6224L32.548 14.4405C32.6428 14.4405 32.6746 14.4405 32.6955 14.4861C32.7168 14.5318 32.6884 14.5599 32.6148 14.6266L24.4094 20.2895C23.8317 20.6957 23.709 21.2035 23.9365 21.8407L27.2091 31.264C27.2337 31.3588 27.2409 31.387 27.2127 31.4291C27.1845 31.4711 27.1389 31.4291 27.0651 31.3799L19.1326 25.3393C18.6074 24.9157 18.0122 24.9157 17.4695 25.3393L9.55447 31.3799C9.48066 31.4291 9.43504 31.4711 9.38939 31.4291Z" fill="currentColor"/>
</svg>
