<svg width="109" height="104" viewBox="0 0 109 104" fill="none" xmlns="http://www.w3.org/2000/svg">
<path d="M20.7636 102.712C22.8262 104.266 25.3239 103.697 28.3719 101.489L54.1941 82.5432L80.0681 101.489C83.0748 103.697 85.5726 104.266 87.6352 102.712C89.6355 101.209 90.0613 98.6701 88.817 95.1448L78.6593 64.7628L104.709 46.0347C107.757 43.9299 109 41.6392 108.171 39.2038C107.394 36.8613 105.083 35.6584 101.34 35.7102L69.3693 35.9277L59.6363 5.3799C58.4957 1.8134 56.7541 0 54.1941 0C51.6964 0 49.9443 1.8134 48.7625 5.3799L39.0294 35.9277L7.05812 35.7102C3.31532 35.6584 1.04572 36.8613 0.227217 39.2038C-0.550123 41.6392 0.682417 43.9299 3.68912 46.0347L29.7395 64.7628L19.5818 95.1448C18.3377 98.6701 18.7633 101.209 20.7636 102.712ZM27.8071 93.0787C27.7237 92.9541 27.7448 92.8707 27.8177 92.5898L37.5507 64.6824C38.1833 62.7951 37.8201 61.2913 36.1092 60.0884L11.8089 43.3174C11.5903 43.1199 11.5069 43.0365 11.5692 42.9014C11.6315 42.7662 11.7255 42.7662 12.0064 42.7662L41.5654 43.3048C43.5667 43.3566 44.8318 42.5371 45.4644 40.5463L53.9132 12.2661C53.9861 11.9852 54.059 11.8913 54.1941 11.8913C54.3293 11.8913 54.4021 11.9852 54.4855 12.2661L62.9343 40.5463C63.5669 42.5371 64.8839 43.3566 66.8852 43.3048L96.3923 42.7662C96.6733 42.7662 96.7673 42.7662 96.8293 42.9014C96.8923 43.0365 96.8083 43.1199 96.5903 43.3174L72.2896 60.0884C70.5787 61.2913 70.2154 62.7951 70.8892 64.6824L80.5811 92.5898C80.654 92.8707 80.6751 92.9541 80.5917 93.0787C80.5083 93.2033 80.3731 93.0787 80.1545 92.933L56.6622 75.0435C55.1066 73.7889 53.344 73.7889 51.7366 75.0435L28.296 92.933C28.0774 93.0787 27.9423 93.2033 27.8071 93.0787Z" fill="white"/>
</svg>
